{
  "accessors": [
    {
      "bufferView": 1,
      "componentType": 5126,
      "count": 65532,
      "max": [
        6.1422510147094727,
        6.9070000648498535,
        7.0586028099060059
      ],
      "min": [
        -6.1461148262023926,
        -5.883000373840332,
        -3.1502854824066162
      ],
      "type": "VEC3"
    },
    {
      "bufferView": 1,
      "byteOffset": 786384,
      "componentType": 5126,
      "count": 65532,
      "max": [
        1,
        1,
        1
      ],
      "min": [
        -1,
        -1,
        -1
      ],
      "type": "VEC3"
    },
    {
      "bufferView": 0,
      "componentType": 5125,
      "count": 538146,
      "max": [
        65531
      ],
      "min": [
        0
      ],
      "type": "SCALAR"
    },
    {
      "bufferView": 1,
      "byteOffset": 1572768,
      "componentType": 5126,
      "count": 21897,
      "max": [
        6.141970157623291,
        3.0125000476837158,
        7.0587368011474609
      ],
      "min": [
        -6.0320000648498535,
        -6.0045003890991211,
        -3.0812854766845703
      ],
      "type": "VEC3"
    },
    {
      "bufferView": 1,
      "byteOffset": 1835532,
      "componentType": 5126,
      "count": 21897,
      "max": [
        1,
        1,
        1
      ],
      "min": [
        -1,
        -1,
        -1
      ],
      "type": "VEC3"
    },
    {
      "bufferView": 0,
      "byteOffset": 2152584,
      "componentType": 5125,
      "count": 183030,
      "max": [
        21896
      ],
      "min": [
        0
      ],
      "type": "SCALAR"
    },
    {
      "bufferView": 1,
      "byteOffset": 2098296,
      "componentType": 5126,
      "count": 65532,
      "max": [
        6.6145000457763672,
        6.5063614845275879,
        7.7579998970031738
      ],
      "min": [
        -6.6195001602172852,
        -6.7780003547668457,
        -3.7750000953674316
      ],
      "type": "VEC3"
    },
    {
      "bufferView": 1,
      "byteOffset": 2884680,
      "componentType": 5126,
      "count": 65532,
      "max": [
        1,
        1,
        1
      ],
      "min": [
        -1,
        -1,
        -1
      ],
      "type": "VEC3"
    },
    {
      "bufferView": 0,
      "byteOffset": 2884704,
      "componentType": 5125,
      "count": 375666,
      "max": [
        65531
      ],
      "min": [
        0
      ],
      "type": "SCALAR"
    },
    {
      "bufferView": 1,
      "byteOffset": 3671064,
      "componentType": 5126,
      "count": 65532,
      "max": [
        6.7390003204345703,
        6.4770002365112305,
        7.7579998970031738
      ],
      "min": [
        -6.7430000305175781,
        -6.7780003547668457,
        -3.8440001010894775
      ],
      "type": "VEC3"
    },
    {
      "bufferView": 1,
      "byteOffset": 4457448,
      "componentType": 5126,
      "count": 65532,
      "max": [
        0.99998652935028076,
        1,
        1
      ],
      "min": [
        -0.99998652935028076,
        -1,
        -1
      ],
      "type": "VEC3"
    },
    {
      "bufferView": 0,
      "byteOffset": 4387368,
      "componentType": 5125,
      "count": 390177,
      "max": [
        65531
      ],
      "min": [
        0
      ],
      "type": "SCALAR"
    },
    {
      "bufferView": 1,
      "byteOffset": 5243832,
      "componentType": 5126,
      "count": 65532,
      "max": [
        6.6155004501342773,
        6.5580401420593262,
        7.6345000267028809
      ],
      "min": [
        -5.8035001754760742,
        -6.6545004844665527,
        -3.6514999866485596
      ],
      "type": "VEC3"
    },
    {
      "bufferView": 1,
      "byteOffset": 6030216,
      "componentType": 5126,
      "count": 65532,
      "max": [
        1,
        1,
        1
      ],
      "min": [
        -1,
        -1,
        -1
      ],
      "type": "VEC3"
    },
    {
      "bufferView": 0,
      "byteOffset": 5948076,
      "componentType": 5125,
      "count": 263325,
      "max": [
        65531
      ],
      "min": [
        0
      ],
      "type": "SCALAR"
    },
    {
      "bufferView": 1,
      "byteOffset": 6816600,
      "componentType": 5126,
      "count": 7475,
      "max": [
        -0.16450001299381256,
        2.8021390438079834,
        5.8590517044067383
      ],
      "min": [
        -5.8035001754760742,
        -2.9024999141693115,
        -1.9424999952316284
      ],
      "type": "VEC3"
    },
    {
      "bufferView": 1,
      "byteOffset": 6906300,
      "componentType": 5126,
      "count": 7475,
      "max": [
        1,
        1,
        1
      ],
      "min": [
        -0.99999940395355225,
        -1,
        -1
      ],
      "type": "VEC3"
    },
    {
      "bufferView": 0,
      "byteOffset": 7001376,
      "componentType": 5125,
      "count": 41640,
      "max": [
        7474
      ],
      "min": [
        0
      ],
      "type": "SCALAR"
    }
  ],
  "asset": {
    "extras": {
      "author": "Justus Mutanen (https://sketchfab.com/justusmutanen)",
      "license": "CC-BY-4.0 (http://creativecommons.org/licenses/by/4.0/)",
      "source": "https://sketchfab.com/3d-models/structure-of-ice-a805aa2269ca46fdb75720f84d500753",
      "title": "Structure of ice"
    },
    "generator": "Sketchfab-10.10.0",
    "version": "2.0"
  },
  "bufferViews": [
    {
      "buffer": 0,
      "byteLength": 7167936,
      "byteOffset": 0,
      "name": "floatBufferViews",
      "target": 34963
    },
    {
      "buffer": 0,
      "byteLength": 6996000,
      "byteOffset": 7167936,
      "byteStride": 12,
      "name": "floatBufferViews",
      "target": 34962
    }
  ],
  "buffers": [
    {
      "byteLength": 14163936,
      "uri": "scene.bin"
    }
  ],
  "materials": [
    {
      "doubleSided": true,
      "emissiveFactor": [
        0,
        0,
        0
      ],
      "name": "kff0d0d.001",
      "pbrMetallicRoughness": {
        "baseColorFactor": [
          1,
          0.055,
          0.055,
          1
        ],
        "metallicFactor": 0,
        "roughnessFactor": 0.57442800000000005
      }
    },
    {
      "doubleSided": true,
      "emissiveFactor": [
        0,
        0,
        0
      ],
      "name": "kffffff.001",
      "pbrMetallicRoughness": {
        "baseColorFactor": [
          1,
          1,
          1,
          1
        ],
        "metallicFactor": 0,
        "roughnessFactor": 0.57442800000000005
      }
    }
  ],
  "meshes": [
    {
      "primitives": [
        {
          "attributes": {
            "NORMAL": 1,
            "POSITION": 0
          },
          "indices": 2,
          "material": 0,
          "mode": 4
        }
      ]
    },
    {
      "primitives": [
        {
          "attributes": {
            "NORMAL": 4,
            "POSITION": 3
          },
          "indices": 5,
          "material": 0,
          "mode": 4
        }
      ]
    },
    {
      "primitives": [
        {
          "attributes": {
            "NORMAL": 7,
            "POSITION": 6
          },
          "indices": 8,
          "material": 1,
          "mode": 4
        }
      ]
    },
    {
      "primitives": [
        {
          "attributes": {
            "NORMAL": 10,
            "POSITION": 9
          },
          "indices": 11,
          "material": 1,
          "mode": 4
        }
      ]
    },
    {
      "primitives": [
        {
          "attributes": {
            "NORMAL": 13,
            "POSITION": 12
          },
          "indices": 14,
          "material": 1,
          "mode": 4
        }
      ]
    },
    {
      "primitives": [
        {
          "attributes": {
            "NORMAL": 16,
            "POSITION": 15
          },
          "indices": 17,
          "material": 1,
          "mode": 4
        }
      ]
    }
  ],
  "nodes": [
    {
      "children": [
        1
      ],
      "name": "RootNode (gltf orientation matrix)",
      "rotation": [
        -0.70710678118654746,
        -0,
        -0,
        0.70710678118654757
      ]
    },
    {
      "children": [
        2
      ],
      "name": "RootNode (model correction matrix)"
    },
    {
      "children": [
        3
      ],
      "name": "root"
    },
    {
      "children": [
        4
      ],
      "matrix": [
        1,
        0,
        0,
        0,
        0,
        2.2204460492503131e-16,
        1,
        0,
        0,
        -1,
        2.2204460492503131e-16,
        0,
        0,
        0,
        0,
        1
      ],
      "name": "GLTF_SceneRootNode"
    },
    {
      "children": [
        5,
        6,
        7,
        8,
        9,
        10
      ],
      "matrix": [
        1,
        0,
        0,
        0,
        0,
        -1.685873969314855e-07,
        0.99999999999998579,
        0,
        0,
        -0.99999999999998579,
        -1.685873969314855e-07,
        0,
        0,
        0,
        0,
        1
      ],
      "name": "ice2.001_0"
    },
    {
      "mesh": 0,
      "name": ""
    },
    {
      "mesh": 1,
      "name": ""
    },
    {
      "mesh": 2,
      "name": ""
    },
    {
      "mesh": 3,
      "name": ""
    },
    {
      "mesh": 4,
      "name": ""
    },
    {
      "mesh": 5,
      "name": ""
    }
  ],
  "scene": 0,
  "scenes": [
    {
      "name": "OSG_Scene",
      "nodes": [
        0
      ]
    }
  ]
}

